<svg aria-hidden="true" style="position: absolute;  overflow: hidden;" version="1.1" xmlns="http://www.w3.org/2000/svg" xmlns:xlink="http://www.w3.org/1999/xlink">
<defs>
<symbol id="arrow" viewBox="0 0 87 32">
<path d="M86.832 19.468c-0.314-1.782-0.298-4.188-1.039-5.894-0.478-1.046-1.712-1.394-2.544-1.954-1.307-0.759-2.638-1.655-3.944-2.414-4.918-2.949-9.837-5.898-14.755-8.847 0.499 0.336 0.556 3.153 0.653 3.701s0.154 3.365 0.653 3.701c2.471 1.543 5.060 2.924 7.531 4.467-24.255 0.461-48.653 0.947-72.884 1.544 0.284-0.050 0.854 7.34 1.281 7.265 22.050-0.496 44.243-1.017 66.459-1.401-2.771 0.913-5.636 2.125-8.168 3.56-0.402 0.212 0.244 2.218 0.701 3.975 0.193 1.097 0.387 2.193 0.58 3.29 0.403-0.212 0.947-0.45 1.35-0.662 0 0 0.142-0.025 0.118-0.162 4.284-2.31 9.046-3.574 13.808-4.837 2.653-0.751 5.331-1.364 7.935-2.389 1.516-0.55 2.202-0.812 2.318-1.822 0.024 0.137 0.166 0.112 0.191 0.249-0.048-0.274-0.097-0.548-0.145-0.822-0.024-0.137-0.072-0.411-0.097-0.548zM80.111 16.272c-0.142 0.025-0.142 0.025-0.284 0.050-0.024-0.137-0.048-0.274-0.048-0.274s0.166 0.112 0.333 0.224z"></path>
</symbol>
</defs>
</svg>
