<svg aria-hidden="true" style="position: absolute;  overflow: hidden;" version="1.1" xmlns="http://www.w3.org/2000/svg" xmlns:xlink="http://www.w3.org/1999/xlink">
<defs>
<symbol id="arrow" viewBox="0 0 87 32">
<path d="M86.832 19.468c-0.314-1.782-0.298-4.188-1.039-5.894-0.478-1.046-1.712-1.394-2.544-1.954-1.307-0.759-2.638-1.655-3.944-2.414-4.918-2.949-9.837-5.898-14.755-8.847 0.499 0.336 0.556 3.153 0.653 3.701s0.154 3.365 0.653 3.701c2.471 1.543 5.060 2.924 7.531 4.467-24.255 0.461-48.653 0.947-72.884 1.544 0.284-0.050 0.854 7.34 1.281 7.265 22.050-0.496 44.243-1.017 66.459-1.401-2.771 0.913-5.636 2.125-8.168 3.56-0.402 0.212 0.244 2.218 0.701 3.975 0.193 1.097 0.387 2.193 0.58 3.29 0.403-0.212 0.947-0.45 1.35-0.662 0 0 0.142-0.025 0.118-0.162 4.284-2.31 9.046-3.574 13.808-4.837 2.653-0.751 5.331-1.364 7.935-2.389 1.516-0.55 2.202-0.812 2.318-1.822 0.024 0.137 0.166 0.112 0.191 0.249-0.048-0.274-0.097-0.548-0.145-0.822-0.024-0.137-0.072-0.411-0.097-0.548zM80.111 16.272c-0.142 0.025-0.142 0.025-0.284 0.050-0.024-0.137-0.048-0.274-0.048-0.274s0.166 0.112 0.333 0.224z"></path>
</symbol>
<symbol id="facebook" viewBox="0 0 16 32">
<path fill="#5a6482" style="fill: var(--color1, #5a6482)" d="M10.385 32v-14.596h4.717l0.706-5.691h-5.423v-3.63c0-1.647 0.44-2.77 2.714-2.77l2.9-0.002v-5.087c-0.502-0.070-2.223-0.225-4.226-0.225-4.182 0-7.044 2.652-7.044 7.52v4.194h-4.73v5.69h4.729v14.596h5.656z"></path>
</symbol>
<symbol id="instagram" viewBox="0 0 32 32">
<path fill="#5a6482" style="fill: var(--color1, #5a6482)" d="M10.668 16c0-2.945 2.387-5.333 5.333-5.333s5.334 2.388 5.334 5.333-2.388 5.333-5.334 5.333c-2.946 0-5.333-2.388-5.333-5.333zM7.785 16c0 4.538 3.678 8.216 8.216 8.216s8.216-3.679 8.216-8.216c0-4.538-3.678-8.216-8.216-8.216s-8.216 3.678-8.216 8.216zM22.622 7.458c0 1.060 0.86 1.921 1.921 1.921 1.060 0 1.921-0.861 1.921-1.921s-0.859-1.919-1.921-1.919c-1.061 0-1.921 0.859-1.921 1.919zM9.536 29.023c-1.56-0.071-2.408-0.331-2.971-0.55-0.747-0.291-1.28-0.637-1.84-1.197-0.56-0.56-0.907-1.092-1.197-1.839-0.22-0.564-0.48-1.411-0.551-2.971-0.078-1.687-0.093-2.193-0.093-6.466s0.017-4.778 0.093-6.466c0.071-1.56 0.332-2.407 0.551-2.971 0.291-0.747 0.637-1.279 1.197-1.84 0.56-0.56 1.092-0.907 1.84-1.196 0.564-0.22 1.411-0.48 2.971-0.551 1.687-0.078 2.193-0.093 6.465-0.093 4.273 0 4.778 0.017 6.466 0.093 1.56 0.071 2.407 0.333 2.971 0.551 0.747 0.289 1.279 0.637 1.84 1.196 0.56 0.56 0.906 1.093 1.197 1.84 0.22 0.564 0.479 1.411 0.55 2.971 0.078 1.688 0.093 2.193 0.093 6.466 0 4.271-0.015 4.778-0.093 6.466-0.071 1.56-0.332 2.408-0.55 2.971-0.291 0.747-0.637 1.279-1.197 1.839s-1.093 0.906-1.84 1.197c-0.564 0.22-1.411 0.479-2.971 0.55-1.687 0.078-2.193 0.093-6.466 0.093-4.272 0-4.778-0.015-6.465-0.093zM9.404 0.097c-1.703 0.078-2.867 0.348-3.884 0.743-1.052 0.408-1.944 0.956-2.834 1.845-0.889 0.889-1.437 1.781-1.846 2.834-0.396 1.017-0.666 2.18-0.743 3.884-0.079 1.706-0.097 2.251-0.097 6.596s0.018 4.89 0.097 6.596c0.078 1.703 0.348 2.867 0.743 3.884 0.408 1.052 0.955 1.945 1.846 2.834 0.889 0.889 1.781 1.436 2.834 1.845 1.018 0.396 2.18 0.666 3.884 0.743 1.707 0.078 2.252 0.097 6.597 0.097 4.347 0 4.891-0.018 6.597-0.097 1.703-0.078 2.867-0.348 3.884-0.743 1.052-0.41 1.944-0.956 2.834-1.845 0.889-0.889 1.436-1.782 1.846-2.834 0.395-1.017 0.667-2.18 0.743-3.884 0.078-1.707 0.096-2.251 0.096-6.596s-0.018-4.89-0.096-6.596c-0.078-1.703-0.348-2.867-0.743-3.884-0.41-1.052-0.956-1.944-1.846-2.834-0.889-0.889-1.782-1.437-2.833-1.845-1.018-0.396-2.182-0.667-3.884-0.743-1.706-0.078-2.251-0.097-6.597-0.097-4.347 0-4.891 0.018-6.598 0.097z"></path>
</symbol>
<symbol id="linkedin" viewBox="0 0 32 32">
<path fill="#5a6482" style="fill: var(--color1, #5a6482)" d="M25.333 0h-18.667c-3.681 0-6.667 2.985-6.667 6.667v18.667c0 3.681 2.985 6.667 6.667 6.667h18.667c3.683 0 6.667-2.985 6.667-6.667v-18.667c0-3.681-2.984-6.667-6.667-6.667zM10.667 25.333h-4v-14.667h4v14.667zM8.667 8.976c-1.288 0-2.333-1.053-2.333-2.352s1.045-2.352 2.333-2.352c1.288 0 2.333 1.053 2.333 2.352s-1.044 2.352-2.333 2.352zM26.667 25.333h-4v-7.472c0-4.491-5.333-4.151-5.333 0v7.472h-4v-14.667h4v2.353c1.861-3.448 9.333-3.703 9.333 3.301v9.012z"></path>
</symbol>
<symbol id="tiktok" viewBox="0 0 27 32">
<path fill="#5a6482" style="fill: var(--color1, #5a6482)" d="M19.41 0c0.513 4.541 2.975 7.249 7.257 7.537v5.108c-2.481 0.25-4.654-0.586-7.182-2.16v9.553c0 12.135-12.853 15.928-18.020 7.229-3.321-5.597-1.287-15.419 9.365-15.813v5.386c-0.811 0.134-1.679 0.346-2.472 0.624-2.369 0.826-3.712 2.371-3.339 5.098 0.718 5.223 10.027 6.769 9.253-3.437v-19.115h5.139v-0.010z"></path>
</symbol>
<symbol id="youtube" viewBox="0 0 46 32">
<path fill="#5a6482" style="fill: var(--color1, #5a6482)" d="M24.135 31.958l-9.483-0.173c-3.070-0.061-6.148 0.060-9.159-0.567-4.579-0.936-4.904-5.526-5.243-9.377-0.468-5.413-0.287-10.926 0.596-16.294 0.498-3.012 2.459-4.81 5.492-5.005 10.237-0.71 20.543-0.625 30.758-0.294 1.079 0.030 2.165 0.196 3.229 0.385 5.251 0.921 5.379 6.123 5.719 10.503 0.339 4.424 0.196 8.871-0.453 13.266-0.521 3.638-1.516 6.69-5.719 6.984-5.266 0.385-10.411 0.695-15.692 0.596 0-0.023-0.030-0.024-0.045-0.024zM18.56 22.747c3.968-2.28 7.861-4.523 11.807-6.788-3.976-2.28-7.861-4.523-11.807-6.788v13.575z"></path>
</symbol>
</defs>
</svg>
